HIERARCHY
ROOT Torso
{
	OFFSET 0.000000 0.000000 0.000000
	CHANNELS 6 Xposition Yposition Zposition Zrotation Yrotation Xrotation
	JOINT TorsoExt
	{
		OFFSET 0.000000 0.000000 0.000000
		CHANNELS 6 Xposition Yposition Zposition Zrotation Yrotation Xrotation
		JOINT LeftHip
		{
			OFFSET 0.000000 0.010000 -0.060000
			CHANNELS 3 Zrotation Yrotation Xrotation
			JOINT LeftThigh
			{
				OFFSET 0.055000 0.000000 -0.055000
				CHANNELS 6 Xposition Yposition Zposition Zrotation Yrotation Xrotation
				JOINT LeftLeg
				{
					OFFSET 0.000000 -0.015000 -0.120000
					CHANNELS 6 Xposition Yposition Zposition Zrotation Yrotation Xrotation
					JOINT LeftFoot
					{
						OFFSET 0.000000 0.010000 -0.100000
						CHANNELS 6 Xposition Yposition Zposition Zrotation Yrotation Xrotation
						End Site
						{
							OFFSET 0.000000 -0.080000 -0.04000
						}
					}
				}
			}
		}
		JOINT RightHip
		{
			OFFSET 0.000000 0.010000 -0.060000
			CHANNELS 3 Zrotation Yrotation Xrotation
			JOINT RightThigh
			{
				OFFSET -0.055000 0.000000 -0.055000
				CHANNELS 6 Xposition Yposition Zposition Zrotation Yrotation Xrotation
				JOINT RightLeg
				{
					OFFSET 0.000000 -0.015000 -0.120000
					CHANNELS 6 Xposition Yposition Zposition Zrotation Yrotation Xrotation
					JOINT RightFoot
					{
						OFFSET 0.000000 0.010000 -0.100000
						CHANNELS 6 Xposition Yposition Zposition Zrotation Yrotation Xrotation
						End Site
						{
							OFFSET 0.000000 -0.080000 -0.04000
						}
					}
				}
			}
		}
	}
	JOINT Neck
	{
		OFFSET 0.000000 -0.000000 0.040000
		CHANNELS 6 Xposition Yposition Zposition Zrotation Yrotation Xrotation
		JOINT Head
		{
			OFFSET 0.000000 -0.000000 0.100000
			CHANNELS 6 Xposition Yposition Zposition Zrotation Yrotation Xrotation
			End Site
			{
				OFFSET 0.000000 -0.000000 0.070000
			}
		}
	}
	JOINT LeftUpperarm
	{
		OFFSET 0.098000 -0.000000 0.075000
		CHANNELS 6 Xposition Yposition Zposition Zrotation Yrotation Xrotation
		JOINT LeftLowerarm
		{
			OFFSET 0.000000 -0.090000 0.009000
			CHANNELS 6 Xposition Yposition Zposition Zrotation Yrotation Xrotation
			End Site
			{
				OFFSET 0.000000 -0.105000 0.000000
			}
		}
	}
	JOINT RightUpperarm
	{
		OFFSET -0.098000 -0.000000 0.075000
		CHANNELS 6 Xposition Yposition Zposition Zrotation Yrotation Xrotation
		JOINT RightLowerarm
		{
			OFFSET 0.000000 -0.090000 0.009000
			CHANNELS 6 Xposition Yposition Zposition Zrotation Yrotation Xrotation
			End Site
			{
				OFFSET 0.000000 -0.105000 0.000000
			}
		}
	}
}
MOTION
Frames: 13
Frame Time: 0.041667
0.000000 0.000000 0.000000 38.138151 0.239674 10.179867 0.000000 0.000000 0.000000 -0.000004 0.000001 -0.000001 -44.067776 -16.871105 24.211149 0.055000 -0.000000 -0.055000 0.000002 0.000006 -0.000002 -0.000000 -0.015000 -0.120000 -182.813606 -25.531351 32.409917 0.000001 0.010000 -0.100000 201.415216 23.635680 -35.894201 44.054853 16.879469 24.205956 -0.055000 -0.000000 -0.055000 102.201637 19.264342 3.911118 -0.000000 -0.015000 -0.120000 58.339808 16.123514 -11.585271 0.000000 0.010000 -0.100000 169.993833 -16.403838 -77.887311 0.000001 -0.000000 0.039998 -2.653431 3.288589 -33.434811 -0.000000 0.000001 0.100002 -17.034024 -7.070867 42.289335 0.098000 0.000000 0.075000 0.332094 177.620230 -85.200702 0.000000 -0.090000 0.008999 -18.063441 3.301060 26.260735 -0.098000 0.000001 0.075000 -65.144084 -122.394203 -4.392864 -0.000000 -0.090000 0.009000 37.254748 -26.587587 75.769338 
0.000000 0.000000 0.000000 38.325417 0.197908 10.229625 0.000000 0.000000 0.000000 -0.000001 0.000000 -0.000003 -44.067786 -16.871107 24.211149 0.055000 -0.000000 -0.055000 0.000002 0.000001 0.000001 0.000000 -0.015000 -0.120000 -183.655823 -25.003116 32.717091 -0.000000 0.010000 -0.100000 201.995605 23.676031 -36.104370 44.054853 16.879474 24.205960 -0.055000 0.000000 -0.054998 101.220173 19.240406 3.556296 -0.000000 -0.014999 -0.120000 59.031631 16.151188 -11.486476 -0.000000 0.009999 -0.100000 170.097774 -16.392630 -77.892256 -0.000001 -0.000000 0.040000 -3.025478 3.424336 -33.290065 0.000001 -0.000000 0.100000 -17.212903 -7.493169 42.424805 0.098002 0.000000 0.074999 -0.038773 177.873070 -85.192540 -0.000000 -0.090001 0.009001 -18.107796 3.322957 26.343744 -0.098002 0.000000 0.075000 -64.350306 -127.376772 -3.928568 0.000000 -0.090000 0.009000 36.950862 -25.574100 74.084883 
0.000000 0.000000 0.000000 38.528947 0.261803 10.314683 0.000000 0.000000 0.000000 -0.000002 0.000001 -0.000002 -44.067786 -16.871105 24.211151 0.055000 -0.000000 -0.055000 0.000001 0.000001 -0.000004 -0.000001 -0.015000 -0.120000 -184.341779 -24.402821 32.904027 0.000000 0.010000 -0.100000 202.505055 23.707283 -36.354095 44.054853 16.879467 24.205965 -0.055000 0.000000 -0.054999 100.310385 19.346789 3.187431 0.000000 -0.015001 -0.120000 59.629573 16.169126 -11.439466 -0.000000 0.010000 -0.100000 169.950775 -16.465431 -77.705396 0.000000 -0.000000 0.040002 -3.293852 3.503174 -33.215364 0.000000 0.000000 0.100000 -17.513746 -7.778986 42.616252 0.098000 0.000000 0.075000 -0.419540 178.009073 -85.078735 -0.000000 -0.090000 0.009001 -18.092787 3.315444 26.315621 -0.098000 -0.000001 0.075000 -63.269927 -132.260452 -3.630697 0.000002 -0.090000 0.008999 36.669909 -24.722575 72.664859 
0.000000 0.000000 0.000000 38.794190 0.358262 10.378349 0.000000 0.000000 0.000000 0.000000 0.000000 0.000001 -44.067776 -16.871110 24.211139 0.055000 0.000000 -0.055000 -0.000000 -0.000000 -0.000001 -0.000000 -0.015000 -0.119999 -184.075333 -24.243482 32.736438 0.000000 0.010000 -0.100000 202.730765 23.768314 -35.602726 44.054864 16.879487 24.205951 -0.055000 0.000001 -0.055000 100.413958 19.620366 3.255745 -0.000000 -0.014999 -0.120000 59.417530 16.281626 -11.472149 0.000000 0.010001 -0.099999 169.930271 -16.441432 -77.787119 -0.000000 0.000000 0.039998 -3.395701 3.570451 -33.199077 -0.000000 0.000000 0.100000 -17.737258 -7.835584 42.930177 0.098000 0.000000 0.075000 -0.666477 178.097743 -84.662804 0.000001 -0.090000 0.009000 -17.938440 3.239752 26.027032 -0.097998 0.000000 0.075000 -62.194384 -136.878070 -3.332073 -0.000000 -0.090000 0.008999 36.452235 -24.106979 71.634642 
0.000000 0.000000 0.000000 39.063809 0.410241 10.389791 0.000000 0.000000 0.000000 0.000001 0.000000 -0.000002 -44.067783 -16.871107 24.211129 0.055000 0.000000 -0.055000 0.000002 0.000004 -0.000001 -0.000000 -0.015001 -0.119999 -183.305844 -24.415575 32.378092 0.000001 0.009999 -0.100000 202.691246 23.823534 -34.397888 44.054850 16.879486 24.205951 -0.054999 0.000001 -0.055002 101.120350 19.901752 3.611267 -0.000000 -0.015000 -0.120000 58.613282 16.418204 -11.715882 -0.000000 0.010000 -0.100000 170.177005 -16.332350 -78.059158 -0.000000 0.000000 0.040000 -3.467939 3.631373 -33.231561 -0.000000 -0.000000 0.100000 -17.875503 -7.647578 43.330689 0.098000 0.000001 0.075000 -0.691130 178.227298 -83.980543 0.000000 -0.090000 0.009002 -17.629797 3.091215 25.451575 -0.098002 0.000000 0.075000 -61.155205 -141.334564 -2.846362 0.000000 -0.090000 0.009000 36.265429 -23.604729 70.791298 
0.000000 0.000000 0.000000 39.280548 0.430642 10.420512 0.000000 0.000000 0.000000 -0.000002 -0.000000 0.000002 -44.067779 -16.871110 24.211151 0.055000 0.000000 -0.055000 -0.000001 0.000004 -0.000002 -0.000001 -0.014999 -0.120000 -183.161358 -24.291686 32.268621 -0.000000 0.009999 -0.100000 202.431617 23.796772 -34.479386 44.054870 16.879486 24.205950 -0.055000 -0.000000 -0.055001 101.154835 20.079563 3.672136 -0.000000 -0.015000 -0.120000 58.301825 16.460250 -11.946806 0.000000 0.010000 -0.100000 170.715702 -16.224358 -78.241647 -0.000000 -0.000000 0.040000 -3.506884 3.635810 -33.355888 0.000000 -0.000001 0.100000 -18.015877 -7.212229 43.698625 0.098004 0.000000 0.075001 -0.918695 178.382083 -83.608175 0.000000 -0.090002 0.008998 -17.441481 3.002452 25.101495 -0.097998 -0.000001 0.075000 -60.037049 -145.608964 -2.241143 -0.000000 -0.090000 0.009000 36.184095 -23.392621 70.434304 
0.000000 0.000000 0.000000 39.464010 0.504978 10.391899 0.000000 0.000000 0.000000 0.000001 0.000000 0.000000 -44.067783 -16.871107 24.211132 0.055000 0.000000 -0.055000 -0.000002 0.000001 0.000000 -0.000000 -0.015000 -0.120000 -183.652845 -23.880086 32.283579 0.000000 0.010000 -0.100000 202.332128 23.745899 -35.351235 44.054864 16.879476 24.205955 -0.055000 -0.000001 -0.055000 100.509908 20.142595 3.262527 -0.000001 -0.014999 -0.120000 58.738322 16.488131 -11.769430 -0.000000 0.009999 -0.100000 171.208650 -16.126357 -78.404691 0.000000 0.000000 0.040000 -3.510651 3.647601 -33.316672 0.000000 -0.000000 0.100002 -18.067879 -6.908903 43.914712 0.097998 0.000000 0.075000 -1.415853 178.492213 -83.646929 -0.000001 -0.089998 0.009001 -17.435463 2.999688 25.090331 -0.098002 -0.000000 0.074999 -58.744333 -149.830896 -1.802609 -0.000002 -0.090000 0.009001 36.142735 -23.286410 70.255271 
0.000000 0.000000 0.000000 39.644897 0.695303 10.270637 0.000000 0.000000 0.000000 0.000000 0.000000 0.000000 -44.067779 -16.871110 24.211141 0.055000 -0.000000 -0.055000 -0.000000 0.000000 -0.000000 -0.000000 -0.015000 -0.120000 -183.855947 -23.571362 32.031989 0.000001 0.010000 -0.100000 202.295559 23.725224 -35.688312 44.054853 16.879476 24.205950 -0.055000 0.000001 -0.055001 100.153926 20.277783 2.785078 0.000000 -0.014998 -0.120000 58.947148 16.528037 -11.597349 -0.000000 0.010001 -0.100000 171.430863 -16.089289 -78.455528 0.000000 0.000000 0.040000 -3.460283 3.563208 -33.147270 0.000000 -0.000000 0.100000 -17.943662 -6.625234 44.049679 0.098000 -0.000000 0.075000 -1.770094 178.497609 -83.630899 0.000000 -0.090002 0.009000 -17.325320 2.948347 24.885760 -0.098004 0.000000 0.075000 -57.344076 -153.806803 -1.587256 -0.000002 -0.090000 0.009002 36.169444 -23.354845 70.370633 
0.000000 0.000000 0.000000 39.785186 0.754835 10.203095 0.000000 0.000000 0.000000 0.000001 0.000000 0.000002 -44.067779 -16.871109 24.211144 0.055000 -0.000000 -0.055000 0.000001 0.000001 -0.000002 -0.000000 -0.015000 -0.120000 -183.711858 -23.500741 31.773849 -0.000000 0.010000 -0.100001 202.327210 23.746266 -35.335441 44.054867 16.879496 24.205955 -0.054999 -0.000000 -0.055001 100.221142 20.413658 2.679301 -0.000000 -0.014999 -0.120000 58.609785 16.542928 -11.668949 0.000000 0.010000 -0.100000 171.519533 -16.145848 -78.252678 0.000000 0.000000 0.040000 -3.460216 3.571961 -33.092827 -0.000000 0.000001 0.100002 -17.818155 -6.332916 44.238196 0.098000 0.000000 0.075000 -2.077234 178.634527 -83.516172 -0.000000 -0.089998 0.008999 -17.167633 2.875778 24.593344 -0.098002 0.000001 0.075001 -55.966102 -156.499155 -1.474064 -0.000002 -0.090000 0.009002 36.165104 -23.343778 70.352137 
0.000000 0.000000 0.000000 39.839650 0.679804 10.203956 0.000000 0.000000 0.000000 0.000000 0.000001 0.000000 -44.067773 -16.871103 24.211141 0.055000 0.000000 -0.055000 -0.000001 0.000003 -0.000000 -0.000001 -0.015000 -0.120000 -184.014777 -23.307259 31.775515 -0.000000 0.010000 -0.100000 202.692161 23.780014 -35.309100 44.054870 16.879491 24.205951 -0.055000 0.000000 -0.055000 99.860084 20.400520 2.544560 0.000000 -0.015001 -0.120000 58.653806 16.529454 -11.633962 0.000000 0.010000 -0.100000 171.361851 -16.298056 -77.820156 -0.000000 0.000000 0.040000 -3.342595 3.766410 -33.292268 0.000000 0.000000 0.099998 -17.968787 -6.044025 44.628743 0.098000 0.000000 0.075000 -2.436204 178.815432 -83.383120 0.000000 -0.090000 0.009001 -17.070987 2.831768 24.414351 -0.098000 -0.000000 0.075001 -54.533825 -157.224370 -1.835269 0.000002 -0.090000 0.008998 36.238238 -23.533420 70.671318 
0.000000 0.000000 0.000000 39.859628 0.668436 10.225173 0.000000 0.000000 0.000000 -0.000001 0.000000 -0.000002 -44.067786 -16.871103 24.211134 0.055000 -0.000000 -0.055000 0.000000 -0.000000 0.000001 -0.000000 -0.014999 -0.120001 -184.463110 -22.942763 31.814417 -0.000000 0.010001 -0.100000 202.994233 23.784172 -35.743241 44.054857 16.879481 24.205955 -0.055000 -0.000001 -0.055000 99.274293 20.439992 2.242156 0.000000 -0.015000 -0.120000 58.922300 16.469089 -11.568104 -0.000001 0.010000 -0.100000 170.953652 -16.497881 -77.307032 -0.000000 0.000000 0.040000 -3.052084 3.928622 -33.666631 -0.000001 -0.000001 0.099996 -18.146216 -5.614661 45.214531 0.097998 -0.000001 0.075001 -2.793535 178.833491 -83.258135 0.000000 -0.089999 0.008999 -16.958538 2.781009 24.206460 -0.098000 0.000001 0.075000 -53.197311 -156.422916 -2.760537 0.000002 -0.090000 0.008998 36.414863 -24.004527 71.462794 
0.000000 0.000000 0.000000 39.857706 0.675148 10.234161 0.000000 0.000000 0.000000 -0.000000 0.000000 0.000001 -44.067773 -16.871112 24.211135 0.055000 -0.000000 -0.055000 0.000001 -0.000001 0.000001 0.000000 -0.015000 -0.120000 -184.717712 -22.612709 31.780160 -0.000000 0.010000 -0.100000 203.109048 23.770704 -36.174830 44.054864 16.879493 24.205960 -0.055000 0.000000 -0.055000 98.860650 20.557732 1.990499 -0.000000 -0.014999 -0.119999 59.061527 16.386244 -11.580814 0.000000 0.010001 -0.100000 170.799699 -16.634502 -76.916044 -0.000001 0.000000 0.040000 -2.929985 4.029050 -33.866680 0.000001 0.000001 0.100002 -18.034643 -5.260425 45.616498 0.098000 0.000000 0.075000 -3.100827 178.898637 -83.311164 0.000000 -0.090001 0.009000 -16.951592 2.777932 24.193787 -0.098000 0.000001 0.075000 -52.074155 -153.911824 -3.981439 -0.000000 -0.090000 0.008999 36.623256 -24.587791 72.439545 
0.000000 0.000000 0.000000 39.806558 0.579695 10.173397 0.000000 0.000000 0.000000 -0.000001 -0.000000 0.000001 -44.067776 -16.871103 24.211142 0.055000 -0.000000 -0.055000 0.000001 0.000000 0.000004 -0.000000 -0.015000 -0.120000 -185.288771 -22.332787 31.854790 0.000000 0.009999 -0.100000 203.487345 23.767662 -36.801011 44.054847 16.879486 24.205958 -0.055000 0.000000 -0.054999 98.232737 20.453282 1.592227 -0.000000 -0.015000 -0.120000 59.488721 16.289820 -11.455439 -0.000000 0.010000 -0.100000 170.887344 -16.749156 -76.520563 -0.000000 0.000000 0.039998 -2.866472 4.110886 -33.683962 -0.000000 -0.000001 0.100000 -17.815623 -4.788319 45.656799 0.098002 0.000000 0.075000 -3.235800 179.079186 -83.409655 -0.000000 -0.090000 0.009000 -16.955274 2.779575 24.200494 -0.098004 0.000001 0.074999 -51.195078 -150.268137 -5.373635 0.000000 -0.090000 0.009000 36.824360 -25.182093 73.431664 
